<?xml version="1.0" encoding="UTF-8" standalone="no"?>
<!-- Created with Inkscape (http://www.inkscape.org/) -->

<svg
   xmlns:dc="http://purl.org/dc/elements/1.1/"
   xmlns:cc="http://creativecommons.org/ns#"
   xmlns:rdf="http://www.w3.org/1999/02/22-rdf-syntax-ns#"
   xmlns:svg="http://www.w3.org/2000/svg"
   xmlns="http://www.w3.org/2000/svg"
   xmlns:sodipodi="http://sodipodi.sourceforge.net/DTD/sodipodi-0.dtd"
   xmlns:inkscape="http://www.inkscape.org/namespaces/inkscape"
   width="140mm"
   height="130mm"
   id="svg3025"
   version="1.1"
   inkscape:version="0.48.3.1 r9886"
   sodipodi:docname="casa2.svg">
  <defs
     id="defs3027">
    <filter
       inkscape:collect="always"
       id="filter4364"
       color-interpolation-filters="sRGB">
      <feGaussianBlur
         inkscape:collect="always"
         stdDeviation="13.977239"
         id="feGaussianBlur4366" />
    </filter>
  </defs>
  <sodipodi:namedview
     id="base"
     pagecolor="#ffffff"
     bordercolor="#666666"
     borderopacity="1.0"
     inkscape:pageopacity="0.0"
     inkscape:pageshadow="2"
     inkscape:zoom="0.98994949"
     inkscape:cx="275.86746"
     inkscape:cy="206.705"
     inkscape:document-units="px"
     inkscape:current-layer="layer1"
     showgrid="false"
     inkscape:window-width="1920"
     inkscape:window-height="1018"
     inkscape:window-x="-8"
     inkscape:window-y="-8"
     inkscape:window-maximized="1" />
  <metadata
     id="metadata3030">
    <rdf:RDF>
      <cc:Work
         rdf:about="">
        <dc:format>image/svg+xml</dc:format>
        <dc:type
           rdf:resource="http://purl.org/dc/dcmitype/StillImage" />
        <dc:title></dc:title>
      </cc:Work>
    </rdf:RDF>
  </metadata>
  <g
     inkscape:label="Capa 1"
     inkscape:groupmode="layer"
     id="layer1">
    <path
       id="rect3813"
       style="fill:#000000;fill-opacity:1;fill-rule:evenodd;stroke:#181111;stroke-width:10;stroke-miterlimit:4;stroke-opacity:1;stroke-dasharray:none;filter:url(#filter4364)"
       d="m 336.90275,51.674401 c -1.24577,0 -2.25,1.00423 -2.25,2.25 l 0,40.031254 36.875,37.499995 2.3125,0 c 1.24577,0 2.25,-1.00423 2.25,-2.25 l 0,-75.281249 c 0,-1.24577 -1.00423,-2.25 -2.25,-2.25 l -36.9375,0 z m -2.25,74.499999 0,3.03125 c 0,1.24577 1.00423,2.25 2.25,2.25 l 2.96875,0 -5.21875,-5.28125 z M 107.91527,230.37947 254.38484,84.949974 401.22119,230.25828 z M 254.17089,31.223505 48.487553,240.68778 l 33.28856,0 173.214517,-176.406185 173.46401,176.309815 31.68471,0 L 254.17089,31.223505 z M 110.09023,230.5985 c -1.04077,0 -1.875,0.83423 -1.875,1.875 l 0,204.125 c 0,1.04077 0.83423,1.875 1.875,1.875 l 103.56251,0 0,-148.3125 c 0,-0.75169 0.59206,-1.375 1.34375,-1.375 l 81.125,0 c 0.75169,0 1.375,0.62331 1.375,1.375 l 0,148.3125 101,0 c 1.04077,0 1.875,-0.83423 1.875,-1.875 l 0,-204.125 c 0,-1.04077 -0.83423,-1.875 -1.875,-1.875 l -288.40626,0 z"
       inkscape:connector-curvature="0" />
    <path
       d="m 333.31054,64.248176 c -1.21852,0 -2.20079,0.927078 -2.20079,2.077139 l 0,36.955775 36.06842,34.61899 2.26192,0 c 1.21852,0 2.20078,-0.92708 2.20078,-2.07714 l 0,-69.497625 c 0,-1.150061 -0.98226,-2.077139 -2.20078,-2.077139 l -36.12955,0 z m -2.20079,68.776394 0,2.79837 c 0,1.15006 0.98227,2.07714 2.20079,2.07714 l 2.90381,0 -5.1046,-4.87551 z M 109.33177,229.22387 252.59757,94.967295 396.22211,229.11199 z M 252.3883,45.368468 51.203943,238.74023 l 32.56042,0 169.425747,-162.853429 169.66976,162.764459 30.99166,0 L 252.3883,45.368468 z M 111.45916,229.42607 c -1.01801,0 -1.83399,0.77014 -1.83399,1.73095 l 0,188.44268 c 0,0.96081 0.81598,1.73095 1.83399,1.73095 l 101.29726,0 0,-136.91809 c 0,-0.69393 0.57911,-1.26936 1.31436,-1.26936 l 79.35052,0 c 0.73525,0 1.34492,0.57543 1.34492,1.26936 l 0,136.91809 98.79078,0 c 1.01801,0 1.83399,-0.77014 1.83399,-1.73095 l 0,-188.44268 c 0,-0.96081 -0.81598,-1.73095 -1.83399,-1.73095 l -282.09784,0 z"
       style="fill:#e3e3e3;fill-opacity:1;fill-rule:evenodd;stroke:#e3e3e3;stroke-width:9.50252628;stroke-miterlimit:4;stroke-opacity:1;stroke-dasharray:none"
       id="path3822"
       inkscape:connector-curvature="0" />
  </g>
</svg>
