<?xml version="1.0" encoding="UTF-8" standalone="no"?>
<!-- Created with Inkscape (http://www.inkscape.org/) -->

<svg
   xmlns:osb="http://www.openswatchbook.org/uri/2009/osb"
   xmlns:dc="http://purl.org/dc/elements/1.1/"
   xmlns:cc="http://creativecommons.org/ns#"
   xmlns:rdf="http://www.w3.org/1999/02/22-rdf-syntax-ns#"
   xmlns:svg="http://www.w3.org/2000/svg"
   xmlns="http://www.w3.org/2000/svg"
   xmlns:sodipodi="http://sodipodi.sourceforge.net/DTD/sodipodi-0.dtd"
   xmlns:inkscape="http://www.inkscape.org/namespaces/inkscape"
   width="180mm"
   height="155mm"
   id="svg2987"
   version="1.1"
   inkscape:version="0.48.3.1 r9886"
   sodipodi:docname="seguirgrupo.svg">
  <defs
     id="defs2989">
    <linearGradient
       id="linearGradient3777"
       osb:paint="solid">
      <stop
         style="stop-color:#108a10;stop-opacity:1;"
         offset="0"
         id="stop3779" />
    </linearGradient>
  </defs>
  <sodipodi:namedview
     id="base"
     pagecolor="#ffffff"
     bordercolor="#666666"
     borderopacity="1.0"
     inkscape:pageopacity="0.0"
     inkscape:pageshadow="2"
     inkscape:zoom="1"
     inkscape:cx="144.97916"
     inkscape:cy="297.63413"
     inkscape:document-units="px"
     inkscape:current-layer="layer1"
     showgrid="false"
     inkscape:window-width="1920"
     inkscape:window-height="1018"
     inkscape:window-x="-8"
     inkscape:window-y="-8"
     inkscape:window-maximized="1" />
  <metadata
     id="metadata2992">
    <rdf:RDF>
      <cc:Work
         rdf:about="">
        <dc:format>image/svg+xml</dc:format>
        <dc:type
           rdf:resource="http://purl.org/dc/dcmitype/StillImage" />
        <dc:title></dc:title>
      </cc:Work>
    </rdf:RDF>
  </metadata>
  <g
     inkscape:label="Capa 1"
     inkscape:groupmode="layer"
     id="layer1">
    <path
       style="fill:#1bf400;fill-opacity:1;fill-rule:evenodd;stroke:#0a6502;stroke-width:10;stroke-linecap:round;stroke-linejoin:round;stroke-miterlimit:4;stroke-opacity:1;stroke-dasharray:none;stroke-dashoffset:0"
       d="m 461.95194,28.826286 c -47.16116,0 -85.375,43.09259 -85.375,96.250004 0,36.92322 18.45971,68.9548 45.53125,85.09375 -2.43209,-0.59562 -4.97406,-0.90625 -7.5625,-0.90625 -19.48237,0 -35.30682,17.76478 -35.6875,39.84375 l -63.34375,108.25 c -1.59691,2.72799 -0.69674,6.18434 2.03125,7.78125 l 17.625,10.3125 c 0.73866,0.43239 1.5157,0.67158 2.3125,0.75 l -15.28125,25.125 285.15625,0.0312 -15.21875,-25.0625 c 1.08744,0.0173 2.20047,-0.27103 3.1875,-0.90625 l 17.15625,-11.0625 c 2.65813,-1.71068 3.39818,-5.21687 1.6875,-7.875 l -69.90625,-108.625 c -0.95514,-21.48266 -16.55107,-38.5625 -35.65625,-38.5625 -2.1454,0 -4.24,0.21212 -6.28125,0.625 26.80605,-16.23329 45.03125,-48.11249 45.03125,-84.8125 0,-53.157414 -38.24509,-96.250004 -85.40625,-96.250004 z"
       id="path2995"
       inkscape:connector-curvature="0"
       inkscape:export-filename="C:\Users\erik\Pictures\web\seguirgrupoverde.png"
       inkscape:export-xdpi="90"
       inkscape:export-ydpi="90" />
    <path
       inkscape:connector-curvature="0"
       id="path5050"
       d="m 168.95194,28.826287 c -47.16116,0 -85.374999,43.092585 -85.374999,96.249993 0,36.92322 18.459709,68.9548 45.531249,85.09375 -2.43209,-0.59562 -4.97406,-0.90625 -7.5625,-0.90625 -19.48237,0 -35.306819,17.76478 -35.687499,39.84375 l -63.343746,108.25 c -1.59691,2.72799 -0.69674,6.18434 2.03125,7.78125 l 17.625,10.3125 c 0.73866,0.43239 1.5157,0.67158 2.3125,0.75 l -15.28125,25.125 285.156245,0.0312 -15.21875,-25.0625 c 1.08744,0.0173 2.20047,-0.27103 3.1875,-0.90625 l 17.15625,-11.0625 c 2.65813,-1.71068 3.39818,-5.21687 1.6875,-7.875 l -69.90625,-108.625 c -0.95514,-21.48266 -16.55107,-38.5625 -35.65625,-38.5625 -2.1454,0 -4.24,0.21212 -6.28125,0.625 26.80605,-16.23329 45.03125,-48.11249 45.03125,-84.8125 0,-53.157408 -38.24509,-96.249993 -85.40625,-96.249993 z"
       style="fill:#1bf400;fill-opacity:1;fill-rule:evenodd;stroke:#30732b;stroke-width:10;stroke-linecap:round;stroke-linejoin:round;stroke-miterlimit:4;stroke-opacity:1;stroke-dasharray:none;stroke-dashoffset:0"
       inkscape:export-filename="C:\Users\erik\Pictures\web\seguirgrupoverde.png"
       inkscape:export-xdpi="90"
       inkscape:export-ydpi="90" />
    <path
       inkscape:connector-curvature="0"
       id="path5052"
       d="m 313.95194,158.82628 c -47.16116,0 -85.375,43.09259 -85.375,96.25 0,36.92322 18.45971,68.9548 45.53125,85.09375 -2.43209,-0.59562 -4.97406,-0.90625 -7.5625,-0.90625 -19.48237,0 -35.30682,17.76478 -35.6875,39.84375 l -63.34375,108.25 c -1.59691,2.72799 -0.69674,6.18434 2.03125,7.78125 l 17.625,10.3125 c 0.73866,0.43239 1.5157,0.67158 2.3125,0.75 l -15.28125,25.125 285.15625,0.0312 -15.21875,-25.0625 c 1.08744,0.0173 2.20047,-0.27103 3.1875,-0.90625 l 17.15625,-11.0625 c 2.65813,-1.71068 3.39818,-5.21687 1.6875,-7.875 l -69.90625,-108.625 c -0.95514,-21.48266 -16.55107,-38.5625 -35.65625,-38.5625 -2.1454,0 -4.24,0.21212 -6.28125,0.625 26.80605,-16.23329 45.03125,-48.11249 45.03125,-84.8125 0,-53.15741 -38.24509,-96.25 -85.40625,-96.25 z"
       style="fill:#1bf400;fill-opacity:1;fill-rule:evenodd;stroke:#ffffff;stroke-width:10;stroke-linecap:round;stroke-linejoin:round;stroke-miterlimit:4;stroke-opacity:1;stroke-dasharray:none;stroke-dashoffset:0"
       inkscape:export-filename="C:\Users\erik\Pictures\web\seguirgrupoverde.png"
       inkscape:export-xdpi="90"
       inkscape:export-ydpi="90" />
  </g>
</svg>
